<?xml version="1.0" encoding="utf-8"?>
<!-- Generator: Adobe Illustrator 27.5.0, SVG Export Plug-In . SVG Version: 6.00 Build 0)  -->
<svg version="1.1" xmlns="http://www.w3.org/2000/svg" xmlns:xlink="http://www.w3.org/1999/xlink" x="0px" y="0px"
	 viewBox="0 0 1122 1122" style="enable-background:new 0 0 1122 1122;" xml:space="preserve">
<g id="Bg">
	<rect style="fill:#FFFFFF;" width="1122" height="1122"/>
</g>
<g id="Object">
	<g>
		<polygon style="fill:none;" points="684.356,791.956 698.966,791.956 698.966,759.728 713.406,759.728 713.406,464.99 
			698.966,464.99 698.966,432.103 609.335,432.103 609.335,464.99 594.895,464.99 594.895,759.728 609.335,759.728 609.335,791.956 
					"/>
		<polygon style="fill:none;" points="437.632,791.956 512.659,791.956 512.659,759.728 527.099,759.728 527.099,464.99 
			512.659,464.99 512.659,432.103 423.028,432.103 423.028,464.99 408.594,464.99 408.594,759.728 423.028,759.728 423.028,791.956 
					"/>
		<polygon style="fill:#616E7D;" points="269.626,397.186 852.373,397.186 560.591,252.17 		"/>
		<path style="fill:#616E7D;" d="M423.028,791.956h-14.434h-67.802h-14.44h-19.137v38.945h-37.59v38.93h582.747v-38.93h-37.595
			v-38.945h-19.137h-14.434h-67.802h-14.44h-14.61v15.548H437.632v-15.548H423.028z M684.356,869.64H437.632v-15.53h246.724V869.64z
			 M684.356,823.033v15.548H437.632v-15.548H684.356z"/>
		<polygon style="fill:#AAD4C8;" points="423.028,464.99 423.028,432.103 408.594,432.103 340.793,432.103 326.353,432.103 
			326.353,464.99 340.793,464.99 340.793,759.728 326.353,759.728 326.353,791.956 340.793,791.956 408.594,791.956 
			423.028,791.956 423.028,759.728 408.594,759.728 408.594,464.99 		"/>
		<polygon style="fill:#AAD4C8;" points="795.641,464.99 795.641,432.103 781.207,432.103 713.406,432.103 698.966,432.103 
			698.966,464.99 713.406,464.99 713.406,759.728 698.966,759.728 698.966,791.956 713.406,791.956 781.207,791.956 
			795.641,791.956 795.641,759.728 781.207,759.728 781.207,464.99 		"/>
		<polygon style="fill:#AAD4C8;" points="609.335,464.99 609.335,432.103 594.895,432.103 527.099,432.103 512.659,432.103 
			512.659,464.99 527.099,464.99 527.099,759.728 512.659,759.728 512.659,791.956 527.099,791.956 594.895,791.956 
			609.335,791.956 609.335,759.728 594.895,759.728 594.895,464.99 		"/>
		<polygon style="fill:#616E7D;" points="269.626,432.103 326.353,432.103 340.793,432.103 408.594,432.103 423.028,432.103 
			512.659,432.103 527.099,432.103 594.895,432.103 609.335,432.103 698.966,432.103 713.406,432.103 781.207,432.103 
			795.641,432.103 852.373,432.103 852.373,407.935 269.626,407.935 		"/>
		<polygon style="fill:#82BFAB;" points="594.895,791.956 527.099,791.956 512.659,791.956 437.632,791.956 437.632,807.503 
			684.356,807.503 684.356,791.956 609.335,791.956 		"/>
		<rect x="437.632" y="823.033" style="fill:#82BFAB;" width="246.724" height="15.548"/>
		<rect x="437.632" y="854.11" style="fill:#82BFAB;" width="246.724" height="15.53"/>
	</g>
</g>
</svg>
